<svg width="110" height="110" viewBox="0 0 110 110" fill="none" xmlns="http://www.w3.org/2000/svg">
<path d="M92.45 14.0499C83.67 51.0399 50.37 77.5499 12 77.5499C11.45 77.5499 11 77.9999 11 78.5499C11 79.0999 11.45 79.5499 12 79.5499C51.08 79.5499 85.03 52.6899 94.25 15.1299L93.64 12.8599L92.45 14.0499Z" fill="#EFEFEF"/>
<path d="M95.6998 99.87H93.3898V40.73C93.3898 40.18 92.9398 39.73 92.3898 39.73C91.8398 39.73 91.3898 40.18 91.3898 40.73V99.87H78.2998V61.24C78.2998 60.69 77.8498 60.24 77.2998 60.24C76.7498 60.24 76.2998 60.69 76.2998 61.24V99.86H63.2198V72.03C63.2198 71.48 62.7698 71.03 62.2198 71.03C61.6698 71.03 61.2198 71.48 61.2198 72.03V99.87H48.1398V78.69C48.1398 78.14 47.6898 77.69 47.1398 77.69C46.5898 77.69 46.1398 78.14 46.1398 78.69V99.87H33.0498V82.6C33.0498 82.05 32.5998 81.6 32.0498 81.6C31.4998 81.6 31.0498 82.05 31.0498 82.6V99.87H17.9698V84.39C17.9698 83.84 17.5198 83.39 16.9698 83.39C16.4198 83.39 15.9698 83.84 15.9698 84.39V99.87H12.0098C11.4598 99.87 11.0098 100.32 11.0098 100.87C11.0098 101.42 11.4598 101.87 12.0098 101.87H95.6998C96.2498 101.87 96.6998 101.42 96.6998 100.87C96.6998 100.32 96.2498 99.87 95.6998 99.87Z" fill="#EFEFEF"/>
<path d="M98.8598 24.63L94.6798 9L83.2398 20.43C82.8498 20.82 82.8498 21.45 83.2398 21.84C83.6298 22.23 84.2598 22.23 84.6498 21.84L92.4598 14.04C92.7198 12.94 92.9598 11.84 93.1798 10.73C93.2898 10.19 93.8098 9.83 94.3498 9.94C94.8898 10.05 95.2498 10.57 95.1398 11.11C94.8798 12.46 94.5798 13.79 94.2498 15.12L96.9298 25.14C97.0498 25.59 97.4498 25.88 97.8998 25.88C97.9898 25.88 98.0698 25.87 98.1598 25.85C98.6898 25.71 98.9998 25.16 98.8598 24.63Z" fill="#EFEFEF"/>
</svg>
