<svg width="110" height="110" viewBox="0 0 110 110" fill="none" xmlns="http://www.w3.org/2000/svg">
<path d="M22.0507 52.3519C22.0507 53.0629 21.4726 53.641 20.7616 53.641H17.6014C16.8905 53.641 16.3123 53.0629 16.3123 52.3519C16.3123 51.641 16.8905 51.0628 17.6014 51.0628H20.7616C21.4726 51.0628 22.0507 51.6409 22.0507 52.3519ZM20.7616 44.7542H17.6014C16.8905 44.7542 16.3123 45.3323 16.3123 46.0433C16.3123 46.7543 16.8905 47.3324 17.6014 47.3324H20.7616C21.4726 47.3324 22.0507 46.7543 22.0507 46.0433C22.0507 45.3324 21.4726 44.7542 20.7616 44.7542ZM20.7616 57.3712H17.6014C16.8905 57.3712 16.3123 57.9493 16.3123 58.6603C16.3123 59.3712 16.8905 59.9494 17.6014 59.9494H20.7616C21.4726 59.9494 22.0507 59.3713 22.0507 58.6603C22.0507 57.9494 21.4726 57.3712 20.7616 57.3712ZM88.4996 52.211C88.4996 57.8594 85.7691 62.762 81.6715 64.551V78.653C81.6715 81.4342 79.3512 83.6921 76.4996 83.6921C73.648 83.6921 71.3199 81.4304 71.3199 78.653V77.9733C71.3199 77.9733 71.2184 77.9343 71.1793 77.903C60.6593 70.6335 48.6793 66.782 36.5313 66.782H33.9922L35.3203 82.403C35.4492 83.9225 34.9805 85.4147 33.9922 86.5827C33.0039 87.7546 31.6211 88.4616 30.1016 88.5944C29.9297 88.6061 29.7735 88.6139 29.6016 88.6139C28.25 88.6139 26.961 88.1452 25.9219 87.2623C24.75 86.2741 24.0313 84.8912 23.9102 83.3717L22.5 66.7937V66.782H17.6016C13.4102 66.782 10 62.8328 10 57.9812V46.7112C10 41.8596 13.4102 37.9104 17.6016 37.9104H36.5316C48.7426 37.9104 60.7616 34.0315 71.3206 26.6914V26.0508C71.3206 23.2696 73.6409 21 76.5003 21C79.3597 21 81.6722 23.2617 81.6722 26.0508V39.8788C85.762 41.66 88.5003 46.5585 88.5003 52.2188L88.4996 52.211ZM17.6016 64.211H26.7813C26.7813 64.211 26.7618 64.1329 26.7618 64.0899V40.4809H17.6134C14.8439 40.4809 12.5939 43.27 12.5939 46.7114V57.9814C12.5939 61.4111 14.8439 64.2119 17.6134 64.2119L17.6016 64.211ZM31.4106 66.7813H25.0903L26.4809 83.1603C26.5512 84.0001 26.9419 84.7619 27.5903 85.3009C28.2309 85.84 29.0512 86.1017 29.8911 86.0314C30.731 85.9611 31.4927 85.5626 32.0317 84.922C32.5708 84.2814 32.8325 83.4611 32.7622 82.6212L32.102 74.8907C32.102 74.8907 32.063 74.9024 32.0434 74.9024H29.2543C28.5434 74.9024 27.9652 74.3243 27.9652 73.6133C27.9652 72.9024 28.5434 72.3242 29.2543 72.3242H31.8832L31.4145 66.7656L31.4106 66.7813ZM71.3206 74.9024V29.7934C64.0198 34.5942 56.0906 37.8325 47.8906 39.395C47.9297 39.5161 47.9687 39.6333 47.9687 39.7739V55.4929C47.9687 56.2039 47.3906 56.782 46.6796 56.782C45.9687 56.782 45.3905 56.2039 45.3905 55.4929V39.8129C42.4608 40.2426 39.4999 40.4731 36.5311 40.4731H29.3202V64.0821C29.3202 64.0821 29.3007 64.1602 29.3007 64.2032H36.5312C39.5 64.2032 42.4609 64.4336 45.3906 64.8633V60.793C45.3906 60.0821 45.9687 59.5039 46.6797 59.5039C47.3907 59.5039 47.9688 60.082 47.9688 60.793V65.3047C56.1407 66.875 64.0468 70.1133 71.3208 74.9063L71.3206 74.9024ZM79.1018 26.0434C79.1018 24.684 77.9299 23.5746 76.5002 23.5746C75.0705 23.5746 73.8986 24.684 73.8986 26.0434V78.6454C73.8986 80.0048 75.0705 81.1142 76.5002 81.1142C77.9299 81.1142 79.1018 80.0048 79.1018 78.6454V26.0434ZM85.9221 52.2114C85.9221 48.1723 84.2229 44.52 81.6721 42.8012V61.6292C84.2307 59.9104 85.9221 56.2581 85.9221 52.219V52.2114ZM98.6331 50.9223H96.8519C96.141 50.9223 95.5628 51.5004 95.5628 52.2114C95.5628 52.9223 96.1409 53.5005 96.8519 53.5005H98.6331C99.3441 53.5005 99.9222 52.9224 99.9222 52.2114C99.9222 51.5005 99.3441 50.9223 98.6331 50.9223ZM85.6331 68.7113C84.9222 68.7113 84.344 69.2894 84.344 70.0004V71.7816C84.344 72.4925 84.9221 73.0707 85.6331 73.0707C86.3441 73.0707 86.9222 72.4926 86.9222 71.7816V70.0004C86.9222 69.2895 86.3441 68.7113 85.6331 68.7113ZM85.6331 35.7233C86.3441 35.7233 86.9222 35.1452 86.9222 34.4342V32.653C86.9222 31.9421 86.3441 31.3639 85.6331 31.3639C84.9221 31.3639 84.344 31.942 84.344 32.653V34.4342C84.344 35.1451 84.9221 35.7233 85.6331 35.7233ZM92.1526 60.1923C91.6526 59.6923 90.8323 59.6923 90.3323 60.1923C89.8323 60.6923 89.8323 61.5126 90.3323 62.0126L95.6604 67.3407C95.9104 67.5907 96.2385 67.7196 96.5706 67.7196C96.8987 67.7196 97.2307 67.5907 97.4807 67.3407C97.9807 66.8407 97.9807 66.0204 97.4807 65.5204L92.1526 60.1923ZM91.2425 44.6143C91.5706 44.6143 91.9026 44.4854 92.1526 44.2354L97.4807 38.9073C97.9807 38.4073 97.9807 37.587 97.4807 37.087C96.9807 36.587 96.1604 36.587 95.6604 37.087L90.3323 42.4151C89.8323 42.9151 89.8323 43.7354 90.3323 44.2354C90.5823 44.4854 90.9104 44.6143 91.2425 44.6143Z" fill="#EFEFEF"/>
</svg>
