<svg width="512" height="512" viewBox="0 0 512 512" fill="none" xmlns="http://www.w3.org/2000/svg">
<g clip-path="url(#clip0_1_2)">
<path d="M481.173 291.456L440.64 145.621C428.759 102.898 402.938 65.3715 367.282 39.0074C331.625 12.6433 288.179 -1.04562 243.85 0.116627C199.52 1.27887 156.851 17.2255 122.625 45.4218C88.3993 73.6181 64.5803 112.446 54.9546 155.733L23.5733 296.853C20.107 312.447 20.1871 328.619 23.8078 344.177C27.4285 359.736 34.4974 374.282 44.4924 386.742C54.4874 399.203 67.1535 409.26 81.5554 416.17C95.9574 423.08 111.727 426.667 127.701 426.667H151.467C156.363 450.779 169.445 472.458 188.496 488.029C207.547 503.601 231.395 512.107 256 512.107C280.605 512.107 304.453 503.601 323.504 488.029C342.555 472.458 355.637 450.779 360.533 426.667H378.411C394.855 426.668 411.076 422.867 425.808 415.561C440.54 408.256 453.383 397.643 463.335 384.552C473.286 371.461 480.076 356.246 483.174 340.097C486.273 323.947 485.574 307.3 481.173 291.456ZM256 469.333C242.81 469.279 229.96 465.15 219.206 457.513C208.453 449.875 200.322 439.102 195.925 426.667H316.075C311.678 439.102 303.547 449.875 292.794 457.513C282.04 465.15 269.19 469.279 256 469.333ZM429.355 358.72C423.41 366.606 415.708 372.997 406.861 377.386C398.014 381.774 388.265 384.039 378.389 384H127.701C118.118 383.998 108.657 381.845 100.018 377.698C91.3784 373.551 83.7804 367.517 77.7848 360.04C71.7892 352.564 67.549 343.837 65.3773 334.503C63.2056 325.169 63.1577 315.467 65.2373 306.112L96.5973 164.971C104.157 130.97 122.865 100.472 149.748 78.3243C176.632 56.177 210.147 43.6517 244.966 42.7395C279.785 41.8273 313.91 52.5806 341.916 73.29C369.922 93.9994 390.201 123.476 399.531 157.035L440.064 302.869C442.742 312.371 443.169 322.365 441.31 332.06C439.451 341.755 435.357 350.883 429.355 358.72Z" fill="#EFEFEF"/>
</g>
<defs>
<clipPath id="clip0_1_2">
<rect width="512" height="512" fill="white"/>
</clipPath>
</defs>
</svg>
