<svg width="110" height="110" viewBox="0 0 110 110" fill="none" xmlns="http://www.w3.org/2000/svg">
<path fill-rule="evenodd" clip-rule="evenodd" d="M69.9293 77.7223V31.6443H66.0231V35.9412C66.0231 37.0193 65.1481 37.8943 64.07 37.8943H45.324C44.2459 37.8943 43.3709 37.0193 43.3709 35.9412V31.6443H39.4647V42.1873C39.4647 43.2654 38.5897 44.1404 37.5116 44.1404H31.6522V48.4373C31.6522 49.5154 30.7772 50.3904 29.6991 50.3904H10.9531C9.875 50.3904 9 49.5154 9 48.4373V35.9413C9 34.8632 9.875 33.9882 10.9531 33.9882H29.6991C30.7772 33.9882 31.6522 34.8632 31.6522 35.9413V40.2382H35.5584V19.1522H31.6522V23.4491C31.6522 24.5272 30.7772 25.4022 29.6991 25.4022H10.9531C9.875 25.4022 9 24.5272 9 23.4491V10.9531C9 9.875 9.875 9 10.9531 9H29.6991C30.7772 9 31.6522 9.875 31.6522 10.9531V15.25H37.5116C38.5897 15.25 39.4647 16.125 39.4647 17.2031V27.7461H43.3709V23.4492C43.3709 22.3711 44.2459 21.4961 45.324 21.4961H64.07C65.1481 21.4961 66.0231 22.3711 66.0231 23.4492V27.7461H71.8825C72.9606 27.7461 73.8356 28.6211 73.8356 29.6992V52.7382H77.7418V48.4413C77.7418 47.3632 78.6168 46.4882 79.6949 46.4882H98.4409C99.519 46.4882 100.394 47.3632 100.394 48.4413V60.9373C100.394 62.0154 99.519 62.8904 98.4409 62.8904H79.6949C78.6168 62.8904 77.7418 62.0154 77.7418 60.9373V56.6404H73.8356V79.6794C73.8356 80.7575 72.9606 81.6325 71.8825 81.6325H66.0231V85.9294C66.0231 87.0075 65.1481 87.8825 64.07 87.8825H45.324C44.2459 87.8825 43.3709 87.0075 43.3709 85.9294V81.6325H39.4647V92.1755C39.4647 93.2536 38.5897 94.1286 37.5116 94.1286H31.6522V98.4255C31.6522 99.5036 30.7772 100.379 29.6991 100.379H10.9531C9.875 100.379 9 99.5036 9 98.4255V85.9295C9 84.8514 9.875 83.9764 10.9531 83.9764H29.6991C30.7772 83.9764 31.6522 84.8514 31.6522 85.9295V90.2264H35.5584V69.1404H31.6522V73.4373C31.6522 74.5154 30.7772 75.3904 29.6991 75.3904H10.9531C9.875 75.3904 9 74.5154 9 73.4373V60.9413C9 59.8632 9.875 58.9882 10.9531 58.9882H29.6991C30.7772 58.9882 31.6522 59.8632 31.6522 60.9413V65.2382H37.5116C38.5897 65.2382 39.4647 66.1132 39.4647 67.1913V77.7343H43.3709V73.4374C43.3709 72.3593 44.2459 71.4843 45.324 71.4843H64.07C65.1481 71.4843 66.0231 72.3593 66.0231 73.4374V77.7343H69.9293V77.7223ZM81.6443 54.6833V58.9802H96.4843V50.3904H81.6443V54.6873V54.6833ZM47.2813 79.6753V83.9722H62.1213V75.3824H47.2813V79.6793V79.6753ZM27.7583 71.4761V62.8863H12.9183V71.4761H27.7583ZM27.7583 96.4681V87.8783H12.9183V96.4681H27.7583ZM27.7583 21.4911V12.9013H12.9183V21.4911H27.7583ZM47.2813 29.6903V33.9872H62.1213V25.3974H47.2813V29.6943V29.6903ZM27.7583 46.4833V37.8935H12.9183V46.4833H27.7583Z" fill="#EFEFEF"/>
</svg>
