<svg width="110" height="110" viewBox="0 0 110 110" fill="none" xmlns="http://www.w3.org/2000/svg">
<path d="M97.7778 7.88885H95.7407V5.9259C95.7407 3.75679 93.9176 2 91.6667 2C89.4157 2 87.5926 3.75679 87.5926 5.9259V7.88885H71.2963V5.9259C71.2963 3.75679 69.4732 2 67.2222 2C64.9712 2 63.1481 3.75679 63.1481 5.9259V7.88885H46.8519V5.9259C46.8519 3.75679 45.0288 2 42.7778 2C40.5268 2 38.7037 3.75679 38.7037 5.9259V7.88885H22.4074V5.9259C22.4074 3.75679 20.5843 2 18.3333 2C16.0824 2 14.2593 3.75679 14.2593 5.9259V7.88885H12.2222C5.4796 7.88885 0 13.1692 0 19.6666V96.2223C0 102.72 5.4796 108 12.2222 108H97.7778C104.52 108 110 102.72 110 96.2223V19.6666C110 13.1692 104.52 7.88885 97.7778 7.88885ZM12.2222 15.7407H14.2593V17.7036C14.2593 19.8727 16.0824 21.6295 18.3333 21.6295C20.5843 21.6295 22.4074 19.8727 22.4074 17.7036V15.7407H38.7037V17.7036C38.7037 19.8727 40.5268 21.6295 42.7778 21.6295C45.0288 21.6295 46.8519 19.8727 46.8519 17.7036V15.7407H63.1481V17.7036C63.1481 19.8727 64.9712 21.6295 67.2222 21.6295C69.4732 21.6295 71.2963 19.8727 71.2963 17.7036V15.7407H87.5926V17.7036C87.5926 19.8727 89.4157 21.6295 91.6667 21.6295C93.9176 21.6295 95.7407 19.8727 95.7407 17.7036V15.7407H97.7778C100.024 15.7407 101.852 17.5024 101.852 19.6666V25.5554H8.14815V19.6666C8.14815 17.5024 9.97633 15.7407 12.2222 15.7407ZM97.7778 100.148H12.2222C9.97633 100.148 8.14815 98.3865 8.14815 96.2223V33.4078H101.852V96.2223C101.852 98.3865 100.024 100.148 97.7778 100.148Z" fill="#39414C"/>
<path d="M30.5561 43.2222H18.3338C16.0829 43.2222 14.2598 44.979 14.2598 47.1481C14.2598 49.3172 16.0829 51.074 18.3338 51.074H30.5561C32.807 51.074 34.6301 49.3172 34.6301 47.1481C34.6301 44.979 32.807 43.2222 30.5561 43.2222Z" fill="#39414C"/>
<path d="M61.1147 43.2222H48.8924C46.6415 43.2222 44.8184 44.979 44.8184 47.1481C44.8184 49.3172 46.6415 51.074 48.8924 51.074H61.1147C63.3656 51.074 65.1887 49.3172 65.1887 47.1481C65.1887 44.979 63.3656 43.2222 61.1147 43.2222Z" fill="#39414C"/>
<path d="M91.6674 43.2222H79.4452C77.1942 43.2222 75.3711 44.979 75.3711 47.1481C75.3711 49.3172 77.1942 51.074 79.4452 51.074H91.6674C93.9184 51.074 95.7415 49.3172 95.7415 47.1481C95.7415 44.979 93.9184 43.2222 91.6674 43.2222Z" fill="#39414C"/>
<path d="M30.5561 62.8516H18.3338C16.0829 62.8516 14.2598 64.6084 14.2598 66.7775C14.2598 68.9466 16.0829 70.7034 18.3338 70.7034H30.5561C32.807 70.7034 34.6301 68.9466 34.6301 66.7775C34.6301 64.6084 32.807 62.8516 30.5561 62.8516Z" fill="#39414C"/>
<path d="M61.1147 62.8516H48.8924C46.6415 62.8516 44.8184 64.6084 44.8184 66.7775C44.8184 68.9466 46.6415 70.7034 48.8924 70.7034H61.1147C63.3656 70.7034 65.1887 68.9466 65.1887 66.7775C65.1887 64.6084 63.3656 62.8516 61.1147 62.8516Z" fill="#39414C"/>
<path d="M91.6674 62.8516H79.4452C77.1942 62.8516 75.3711 64.6084 75.3711 66.7775C75.3711 68.9466 77.1942 70.7034 79.4452 70.7034H91.6674C93.9184 70.7034 95.7415 68.9466 95.7415 66.7775C95.7415 64.6084 93.9184 62.8516 91.6674 62.8516Z" fill="#39414C"/>
<path d="M30.5561 82.481H18.3338C16.0829 82.481 14.2598 84.2378 14.2598 86.4069C14.2598 88.576 16.0829 90.3328 18.3338 90.3328H30.5561C32.807 90.3328 34.6301 88.576 34.6301 86.4069C34.6301 84.2378 32.807 82.481 30.5561 82.481Z" fill="#39414C"/>
<path d="M61.1147 82.481H48.8924C46.6415 82.481 44.8184 84.2378 44.8184 86.4069C44.8184 88.576 46.6415 90.3328 48.8924 90.3328H61.1147C63.3656 90.3328 65.1887 88.576 65.1887 86.4069C65.1887 84.2378 63.3656 82.481 61.1147 82.481Z" fill="#39414C"/>
<path d="M91.6674 82.481H79.4452C77.1942 82.481 75.3711 84.2378 75.3711 86.4069C75.3711 88.576 77.1942 90.3328 79.4452 90.3328H91.6674C93.9184 90.3328 95.7415 88.576 95.7415 86.4069C95.7415 84.2378 93.9184 82.481 91.6674 82.481Z" fill="#39414C"/>
</svg>
