<svg width="110" height="110" viewBox="0 0 110 110" fill="none" xmlns="http://www.w3.org/2000/svg">
<g clip-path="url(#clip0_10_78)">
<path d="M88.2303 53.8544H56.1465V21.7705C56.1465 19.873 54.6065 18.333 52.709 18.333C50.8115 18.333 49.2715 19.873 49.2715 21.7705V57.2919C49.2715 59.1894 50.8115 60.7294 52.709 60.7294H88.2303C90.1279 60.7294 91.6678 59.1894 91.6678 57.2919C91.6678 55.3944 90.1279 53.8544 88.2303 53.8544Z" fill="#39414C"/>
<path d="M55 0C24.6718 0 0 24.6718 0 55C0 85.3282 24.6718 110 55 110C85.3282 110 110 85.3282 110 55C110 24.6718 85.3282 0 55 0ZM55 103.125C28.4625 103.125 6.875 81.5373 6.875 55C6.875 28.4625 28.4625 6.875 55 6.875C81.5373 6.875 103.125 28.4625 103.125 55C103.125 81.5373 81.5373 103.125 55 103.125Z" fill="#39414C"/>
</g>
<defs>
<clipPath id="clip0_10_78">
<rect width="110" height="110" fill="white"/>
</clipPath>
</defs>
</svg>
