<svg width="110" height="110" viewBox="0 0 110 110" fill="none" xmlns="http://www.w3.org/2000/svg">
<path fill-rule="evenodd" clip-rule="evenodd" d="M100.106 89.6918V98.4535C100.106 99.4222 99.3206 100.207 98.3519 100.207L10.7539 100.203C9.78515 100.203 9 99.4183 9 98.4496V89.6879C9 88.6801 9.80078 87.8988 10.9023 87.9418H16.7812L16.7851 73.5238C16.7851 72.555 17.5703 71.7699 18.539 71.7699H40.801L40.7971 56.7429C40.7971 55.7741 41.5823 54.989 42.551 54.989H66.563C67.5318 54.989 68.3169 55.7742 68.3169 56.7429V63.9695H90.5789C91.5477 63.9695 92.3328 64.7547 92.3328 65.7234V87.9464H98.364C99.3288 87.9464 100.11 88.7276 100.11 89.6925L100.106 89.6918ZM44.6178 12.5038C44.7975 15.0077 44.5983 17.3593 44.4069 19.5897C43.8795 25.8592 43.4498 30.9917 54.5549 33.8127C65.6599 30.9924 65.2309 25.8596 64.6999 19.5897C64.5124 17.3592 64.3131 15.0077 64.4889 12.5038H44.6178ZM40.9186 19.3007C41.0124 18.2148 41.1061 17.0976 41.153 15.9609C40.0827 15.9609 36.8366 15.7578 36.4382 16.2109C35.6687 17.0937 36.2507 19.3789 36.7429 20.5781C37.4851 22.3906 38.8171 24.332 40.739 26.0117C40.528 23.9375 40.7194 21.6835 40.9186 19.3007ZM41.11 12.4609C41.0006 11.4921 40.4147 9 42.6647 9H66.4457V9.00781C67.5043 9.00781 68.3324 9.96875 68.1684 11.0195C68.0942 11.5 68.0356 11.9805 67.9965 12.4609C70.9731 12.4609 73.6332 11.9883 75.309 13.914C77.102 15.9726 76.6567 19.3163 75.5942 21.9101C74.1645 25.3945 71.02 29.2539 66.1411 31.6562C65.2505 32.7304 64.0395 33.7187 62.4106 34.6132L61.4809 38.1171C63.9887 38.1171 63.4457 40.5351 63.4457 43.2343C64.6527 43.2343 66.4301 44.5155 67.9496 45.3593C68.5238 45.6796 68.848 46.2734 68.848 46.8866H68.852V50.6132C68.852 51.582 68.0668 52.3671 67.098 52.3671L42.004 52.3632C41.0353 52.3632 40.2501 51.578 40.2501 50.6093C40.2501 45.0038 39.5001 46.2773 44.5704 43.457C44.84 43.3086 45.1329 43.2343 45.4181 43.2383V43.2343H45.6564C45.6564 40.5351 45.1134 38.1171 47.6212 38.1171L46.6915 34.6133C45.0626 33.7187 43.8517 32.7305 42.961 31.6562C38.0821 29.254 34.9376 25.3945 33.5079 21.9101C31.7227 17.5585 32.4493 12.4609 37.1524 12.4609L41.11 12.4609ZM67.958 15.9648C68.1025 19.2734 68.6885 22.9336 68.3682 26.0198C72.9151 22.0471 74.2666 15.9648 71.9541 15.9648H67.958ZM58.333 36.3478C54.4736 37.6369 54.6494 37.6447 50.7744 36.3478L51.2432 38.1134H57.8643L58.333 36.3478ZM63.2432 46.7388H45.8682L43.7588 47.9107V48.8599H65.3528V47.9107L63.2432 46.7388ZM59.9463 41.6216H49.1653V43.2349H59.9463V41.6216ZM68.3135 87.9456H88.8215V67.4766L68.3135 67.4727V87.9456ZM69.8799 91.4339H12.5089V96.6956H96.6069V91.4339H69.8799ZM44.3019 73.5239V87.9459H64.8099V58.4969H44.3019V73.5239ZM20.2899 87.9459H40.7979V75.2779H20.2899V87.9459Z" fill="#EFEFEF"/>
</svg>
