<svg width="60" height="60" viewBox="0 0 60 60" fill="none" xmlns="http://www.w3.org/2000/svg">
<rect width="60" height="60" rx="10" fill="#48D87B"/>
<path d="M42.372 31.9169C42.9518 33.3479 42.8213 34.6772 42.0287 35.9644C39.8922 39.4343 37.7661 42.9104 35.6432 46.3883C35.4338 46.7313 35.1597 46.9658 34.7915 47.1308C32.8943 47.9812 31.0016 48.8415 29.11 49.7039C28.8101 49.8407 28.5078 49.9224 28.1745 49.8962C26.6295 49.775 25.0843 49.6564 23.539 49.5402C22.1224 49.4337 20.7055 49.3309 19.2886 49.2275C17.8394 49.1217 16.39 49.017 14.9407 48.9123C14.6181 48.889 14.3742 48.8032 14.4075 48.4033C14.5397 46.8154 14.4354 45.2228 14.4956 43.6329C14.5384 42.5049 14.5327 41.3753 14.5691 40.247C14.5801 39.9046 14.468 39.7582 14.1106 39.7453C13.4652 39.722 12.8211 39.6638 12.1764 39.6222C11.893 39.6039 11.7682 39.4848 11.7363 39.1801C11.5924 37.8067 11.4255 36.4353 11.2436 35.0663C11.2078 34.797 11.3056 34.6615 11.5044 34.5147C12.9401 33.4545 14.3396 32.3435 15.8138 31.3384C16.4397 30.9117 16.6243 30.3953 16.7018 29.7237C16.971 27.3911 17.2648 25.0611 17.5605 22.7316C17.6301 22.1832 17.5852 21.71 17.2327 21.2202C16.3829 20.0395 15.6167 18.8008 14.7967 17.5987C14.5948 17.3027 14.5587 17.0489 14.6944 16.7155C15.542 14.6339 16.3751 12.5465 17.203 10.4573C17.3053 10.1992 17.4394 10.0905 17.7359 10.0964C20.4178 10.1504 23.0975 10.2596 25.777 10.378C27.0685 10.4351 28.3614 10.4739 29.654 10.4831C30.2035 10.4871 30.7107 10.597 31.1988 10.8213C34.6117 12.3894 38.0234 13.96 41.4346 15.5318C41.5486 15.5843 41.6527 15.6573 41.7786 15.7308C41.6667 16.034 41.4162 16.1967 41.2107 16.3854C40.017 17.4821 38.8358 18.5933 37.6092 19.6534C35.8876 21.1412 35.3635 23.0226 35.562 25.1927C35.6888 26.5786 36.1881 27.8136 36.9888 28.9408C37.1581 29.1791 37.1469 29.3576 36.9651 29.5772C35.5179 31.3247 35.0175 33.3525 35.2052 35.5599C35.3229 36.9434 35.8344 38.1861 36.7992 39.2184C37.311 39.7659 37.4252 39.7439 37.8366 39.1298C38.2895 38.4534 38.742 37.7768 39.165 37.1448C39.1725 36.9904 39.1091 36.9354 39.043 36.8923C37.307 35.7587 37.4185 32.409 39.182 31.0415C40.2223 30.2349 41.7332 30.5041 42.372 31.9169ZM23.6331 48.8283C24.9952 48.9839 26.3589 49.1282 27.719 49.2994C28.4602 49.3927 28.4737 49.4048 28.4744 48.695C28.4778 45.1464 28.4786 41.5978 28.478 38.0491C28.4779 37.8801 28.5168 37.6961 28.2904 37.4967C27.4931 38.2952 26.6942 39.0953 25.8787 39.912C25.8009 39.7951 25.7607 39.7595 25.7515 39.7173C25.4195 38.1975 25.0985 36.6753 24.7548 35.1581C24.6775 34.8169 24.8194 34.6335 25.0701 34.4419C26.5129 33.339 27.9473 32.2254 29.3836 31.1143C29.5604 30.9776 29.7569 30.8554 29.7926 30.6062C29.8892 29.9312 29.9897 29.2568 30.0854 28.5818C30.435 26.1164 30.7815 23.6505 31.1338 21.1855C31.194 20.7643 31.1647 20.4005 30.8742 20.0287C30.0762 19.0076 29.3414 17.9389 28.5524 16.9107C28.3145 16.6007 28.3051 16.3406 28.4332 15.9919C29.0153 14.4078 29.5719 12.8147 30.1367 11.2244C30.1773 11.1102 30.2628 10.9965 30.1639 10.8683C28.5798 10.9119 26.9995 10.9623 25.4189 10.9973C23.254 11.0452 21.0889 11.091 18.9236 11.1138C18.5436 11.1179 18.371 11.283 18.2463 11.5931C17.7944 12.7167 17.3267 13.8343 16.8809 14.9603C16.736 15.3264 16.5242 15.6711 16.4435 16.1598C20.0666 16.3204 23.6624 16.4798 27.2581 16.6392C27.2576 16.6917 27.2572 16.7441 27.2568 16.7966C23.6834 17.0377 20.1101 17.2788 16.4123 17.5283C17.2135 18.6446 17.9273 19.6432 18.6474 20.6374C18.7489 20.7776 18.9164 20.7911 19.0842 20.8002C22.0348 20.9612 24.9853 21.1238 27.9354 21.2916C28.3649 21.316 28.7928 21.3691 29.2321 21.4099C29.1693 21.562 29.06 21.5339 28.9706 21.5387C27.1968 21.6339 25.423 21.7295 23.6489 21.8195C22.2779 21.889 20.9065 21.9519 19.5353 22.0155C19.2489 22.0288 19.1139 22.1442 19.0851 22.4507C18.8741 24.6951 18.6448 26.9379 18.421 29.1811C18.3615 29.7776 18.4241 29.8468 19.0192 29.8765C19.212 29.8862 19.4038 29.9414 19.5955 29.9388C20.0445 29.9326 20.4941 30.1076 20.9992 29.9889C20.6974 29.4441 20.7792 29.0016 21.1923 28.6442C21.7477 28.1638 22.3938 27.9064 23.1485 27.9658C23.5434 27.9968 23.8165 28.1754 23.9275 28.565C24.0276 28.9168 24.1592 29.2618 24.2321 29.6187C24.3451 30.1725 24.5518 30.5613 25.2373 30.4777C25.5021 30.4454 25.7867 30.5006 26.0523 30.5597C26.5794 30.677 27.1499 30.5577 27.6502 30.894C26.8436 30.9876 26.0405 30.9816 25.2377 30.9917C25.0338 30.9942 24.7173 30.9067 24.7497 31.2697C24.7736 31.5376 24.8615 31.8148 25.2498 31.7807C25.5228 31.7568 25.7973 31.7456 26.0713 31.7394C26.4615 31.7305 26.8595 31.65 27.3483 31.8352C26.5056 32.5145 25.7298 33.1292 24.9679 33.7603C24.7155 33.9694 24.4457 34.0407 24.1231 34.0436C23.3322 34.0505 22.5408 34.018 21.7497 34.103C21.4673 34.1333 21.1524 34.2136 20.843 34.0368C21.0403 33.7145 21.344 33.5504 21.5935 33.3358C22.4999 32.556 22.4953 32.5647 21.9135 31.5225C21.7684 31.2625 21.5948 31.1594 21.2984 31.1767C20.4923 31.2237 19.6816 31.2186 18.8798 31.3007C18.4905 31.3406 18.0695 31.2552 17.7068 31.5076C16.4793 32.3616 15.2437 33.2044 14.0147 34.0564C13.9065 34.1314 13.7375 34.1735 13.7637 34.4231C17.1572 34.5187 20.5562 34.6143 23.9551 34.71C23.9543 34.7614 23.9536 34.8128 23.9528 34.8642C23.4765 34.9027 23.0007 34.9476 22.5239 34.9786C19.4788 35.177 16.4337 35.376 13.3878 35.5626C13.0826 35.5813 12.9455 35.6685 12.9676 35.9852C13.0149 36.6667 13.0475 37.3493 13.0757 38.0318C13.0856 38.2728 13.2089 38.3602 13.4366 38.3874C14.2051 38.4789 14.9722 38.5816 15.7398 38.6813C18.1534 38.9947 20.5684 39.2989 22.9793 39.6319C23.3772 39.6869 23.8166 39.6371 24.1753 39.8949C23.5378 39.9539 22.9105 39.9558 22.2832 39.9536C20.1811 39.946 18.0789 39.9435 15.9769 39.9232C15.5479 39.919 15.3569 40.0453 15.3976 40.499C15.4499 41.0838 15.4576 41.673 15.4697 42.2607C15.5052 43.9778 15.538 45.6951 15.5603 47.4125C15.5647 47.7535 15.6618 47.9079 16.0495 47.9497C18.5509 48.2194 21.0488 48.5198 23.6331 48.8283ZM24.3881 32.1379C24.1208 31.2428 23.8535 30.3478 23.5648 29.3811C23.0421 29.829 22.4541 29.984 21.8054 30.1462C22.3788 31.1613 22.9098 32.104 23.4441 33.0449C23.5374 33.209 23.6942 33.2261 23.8665 33.1963C24.4394 33.0971 24.5907 32.8244 24.3881 32.1379ZM23.0262 28.5108C22.3702 28.5609 21.7794 28.7253 21.4202 29.3529C21.9909 29.623 22.9991 29.2941 23.2244 28.806C23.2956 28.6517 23.2485 28.5662 23.0262 28.5108Z" fill="#141720"/>
<path d="M42.9076 43.4106C41.6575 43.9772 40.4394 44.528 39.1968 45.0899C39.1371 44.79 39.2836 44.6459 39.3729 44.4911C40.6329 42.3049 41.902 40.1241 43.1625 37.9381C44.0239 36.444 44.4699 34.8298 44.4161 33.1005C44.3804 31.9512 44.1352 30.8356 43.4725 29.8729C43.2285 29.5184 43.2475 29.2541 43.4237 28.8868C44.5072 26.6282 44.5172 24.3566 43.4331 22.0902C43.3457 21.9074 43.2646 21.7147 43.0429 21.5692C42.5835 21.8874 42.2713 22.3637 41.91 22.7872C41.7598 22.9632 41.9481 23.1107 42.0298 23.2505C42.6868 24.3748 42.8614 25.5524 42.4134 26.7945C42.1639 27.4862 41.752 28.0288 40.9734 28.1312C40.2129 28.2311 39.5887 27.9272 39.1092 27.3474C38.0066 26.0142 38.1236 23.6479 39.4056 22.233C40.9063 20.5767 42.4576 18.967 43.9755 17.3263C44.2452 17.0347 44.4599 17.025 44.7713 17.2636C46.3875 18.5018 47.1592 20.2286 47.5842 22.1565C47.8593 23.4046 47.8714 24.6668 47.6487 25.9207C47.361 27.5409 46.6724 28.9162 45.0546 29.7593C46.0043 29.9746 46.7245 30.3775 47.2567 31.0911C47.8886 31.9382 48.1873 32.9148 48.3183 33.9403C48.5654 35.8737 48.3678 37.7567 47.5074 39.5272C46.7612 41.0626 45.7254 42.3084 44.0561 42.8952C43.6729 43.0299 43.3112 43.2266 42.9076 43.4106Z" fill="#141720"/>
</svg>
