<svg width="110" height="110" viewBox="0 0 110 110" fill="none" xmlns="http://www.w3.org/2000/svg">
<path d="M36.4082 45.5198H28.2207C27.4941 45.5198 26.9043 46.1097 26.9043 46.8401V55.0198C26.9043 55.3714 27.041 55.7073 27.291 55.9534C27.5371 56.2034 27.873 56.3401 28.2207 56.3401H36.4082C36.7597 56.3401 37.0957 56.2034 37.3418 55.9534C37.5918 55.7073 37.7285 55.3714 37.7285 55.0198V46.8401C37.7285 46.4886 37.5918 46.1526 37.3418 45.9065C37.0957 45.6565 36.7597 45.5198 36.4082 45.5198ZM35.0879 53.6995H29.541V48.1604H35.0879V53.6995ZM64.3579 48.219C64.3579 48.9456 63.768 49.5354 63.0415 49.5354H42.4245C42.069 49.5471 41.7214 49.4104 41.4674 49.1643C41.2096 48.9143 41.069 48.5745 41.069 48.219C41.069 47.8596 41.2096 47.5198 41.4674 47.2698C41.7214 47.0237 42.069 46.887 42.4245 46.8987H63.0335C63.385 46.8987 63.721 47.0354 63.9671 47.2854C64.2171 47.5315 64.3538 47.8674 64.3538 48.219H64.3579ZM64.3579 55.1604V55.1565C64.3618 55.5081 64.2211 55.844 63.9711 56.094C63.7251 56.344 63.3852 56.4807 63.0336 56.4807H42.4247C41.6942 56.4807 41.1044 55.887 41.1044 55.1604C41.1044 54.43 41.6942 53.8401 42.4247 53.8401H63.0336C63.7641 53.8401 64.354 54.43 64.354 55.1565L64.3579 55.1604ZM36.4089 62.1877H28.2214C27.8737 62.1877 27.5378 62.3283 27.2917 62.5744C27.0417 62.8205 26.905 63.1565 26.905 63.508V71.6877C26.905 72.0393 27.0417 72.3752 27.2917 72.6213C27.5378 72.8674 27.8737 73.008 28.2214 73.008H36.4089C36.7604 73.008 37.0964 72.8674 37.3425 72.6213C37.5925 72.3752 37.7292 72.0393 37.7292 71.6877V63.508C37.7292 63.1565 37.5925 62.8205 37.3425 62.5744C37.0964 62.3244 36.7604 62.1877 36.4089 62.1877ZM35.0886 70.3713H29.5417V64.8283H35.0886V70.3713ZM18.3076 24.9413C18.3076 24.2108 18.8974 23.621 19.6279 23.621H47.4089C47.7643 23.6093 48.112 23.746 48.3659 23.9921C48.6198 24.2421 48.7643 24.5819 48.7643 24.9413C48.7643 25.2968 48.6198 25.6366 48.3659 25.8866C48.112 26.1366 47.7643 26.2694 47.4089 26.2577H19.6279C19.2763 26.2577 18.9404 26.121 18.6943 25.871C18.4482 25.6249 18.3076 25.289 18.3076 24.9413ZM50.2916 32.1288C50.2916 31.3983 50.8853 30.8085 51.6119 30.8085H62.9049C63.6353 30.8085 64.2252 31.3984 64.2252 32.1288C64.2252 32.8554 63.6353 33.4452 62.9049 33.4452H51.6119C50.8853 33.4452 50.2955 32.8593 50.2916 32.1327V32.1288ZM18.3116 32.1288H18.3155C18.3155 31.7773 18.4522 31.4413 18.6983 31.1952C18.9483 30.9452 19.2842 30.8085 19.6319 30.8085H44.7059C45.4363 30.8085 46.0262 31.3983 46.0262 32.1288C46.0262 32.8554 45.4363 33.4452 44.7059 33.4452H19.6279C18.9013 33.4452 18.3115 32.8593 18.3076 32.1327L18.3116 32.1288ZM62.9056 40.6444H19.6286C18.8981 40.6444 18.3083 40.0546 18.3083 39.3241C18.3083 38.5975 18.8981 38.0077 19.6286 38.0077H62.9056C63.636 38.0077 64.2259 38.5975 64.2259 39.3241C64.2259 40.0546 63.636 40.6444 62.9056 40.6444ZM102.629 67.7694C102.613 66.4569 102.601 65.3241 102.601 64.41H102.597C102.601 63.8475 102.246 63.3436 101.715 63.16C94.9254 60.7303 88.5265 57.328 82.7185 53.055V16.375C82.7185 15.6445 82.1287 15.0547 81.3982 15.0547H74.6677V8.32031C74.6677 7.96875 74.5271 7.63281 74.281 7.38672C74.031 7.14063 73.699 7 73.3474 7H9.3164C8.58984 7 8 7.58984 8 8.3203V90.0743C8 90.8048 8.58984 91.3946 9.3164 91.3946H16.0469V98.1251H16.0508C16.0508 98.8556 16.6406 99.4454 17.3711 99.4454H72.6211C74.0703 100.277 75.5391 101.074 76.9727 101.848C78.1524 102.484 79.2696 103.086 80.3672 103.703L80.3633 103.707C80.5625 103.816 80.7852 103.875 81.0156 103.875C81.0742 103.875 81.1328 103.871 81.1914 103.863C81.4766 103.902 81.7656 103.848 82.0156 103.707C83.1094 103.09 84.2265 102.488 85.4062 101.856C92.3945 98.0938 100.312 93.8282 101.898 86.3905C102.801 82.1327 102.699 73.4884 102.629 67.7694ZM80.0816 17.6954V52.7544C78.2691 54.0747 76.4644 55.2896 74.6636 56.3989L74.6675 17.6959L80.0816 17.6954ZM10.6366 9.64071H72.0276V57.9727C68.4065 60.0469 64.6018 61.7852 60.6646 63.168C60.3677 63.2696 60.1216 63.4766 59.9654 63.7461H42.4263C42.0709 63.7344 41.7232 63.8711 41.4693 64.1172C41.2115 64.3672 41.0709 64.7071 41.0709 65.0625C41.0709 65.4219 41.2115 65.7617 41.4693 66.0117C41.7232 66.2578 42.0709 66.3946 42.4263 66.3828H59.7663C59.7624 66.8203 59.7546 67.2813 59.7507 67.7695C59.7429 68.5742 59.7312 69.4375 59.7234 70.3398H42.4304V70.3437C42.0749 70.332 41.7273 70.4687 41.4734 70.7148C41.2194 70.9648 41.0749 71.3047 41.0749 71.6601C41.0749 72.0195 41.2194 72.3594 41.4734 72.6094C41.7273 72.8555 42.0749 72.9922 42.4304 72.9805H59.7114C59.7114 77.8985 59.8325 83.3005 60.4887 86.3905C60.6645 87.203 60.9184 87.996 61.2504 88.7577H10.6374L10.6366 9.64071ZM18.6874 96.8087V91.3907H62.7384C64.3243 93.5001 66.254 95.3321 68.4454 96.8087H18.6874ZM99.3124 85.8357C97.9804 92.0779 90.9491 95.8627 84.1484 99.5267C83.1718 100.054 82.164 100.597 81.1914 101.14H81.1836C80.2109 100.597 79.2031 100.054 78.2188 99.5267C71.4258 95.8626 64.3988 92.0736 63.0668 85.8357C62.223 81.8709 62.3207 73.4017 62.3871 67.8007C62.3988 66.8905 62.4066 66.0702 62.4105 65.3437L62.4144 65.3398C69.1097 62.8476 75.4304 59.4375 81.1914 55.2108C86.9531 59.4374 93.2694 62.8475 99.9684 65.3398C99.9684 66.0703 99.984 66.8906 99.9918 67.7968C100.058 73.4023 100.156 81.8707 99.3124 85.8357ZM89.3358 73.7027C89.8123 74.2535 89.7537 75.0855 89.203 75.566L79.7577 83.7301L79.7538 83.7262C79.2538 84.1598 78.5076 84.1559 78.0154 83.7145L71.9725 78.32V78.3161C71.7107 78.0856 71.5545 77.7575 71.535 77.4059C71.5154 77.0583 71.6326 76.7145 71.867 76.4528C72.3514 75.9098 73.1873 75.863 73.7303 76.3473L78.9061 80.9723L87.4764 73.5661C88.0272 73.0935 88.8592 73.1519 89.3358 73.7027Z" fill="#EFEFEF"/>
</svg>
