<svg width="110" height="110" viewBox="0 0 110 110" fill="none" xmlns="http://www.w3.org/2000/svg">
<g clip-path="url(#clip0_10_82)">
<path d="M55.0087 0C24.6773 0 0 24.6554 0 54.9912C0 71.4659 7.28748 86.2642 18.799 96.3534C28.4841 104.84 41.1509 110 55.0131 110C68.8533 110 81.5076 104.857 91.1799 96.3919H91.1756C91.3045 96.2931 91.4248 96.1857 91.5365 96.0696C102.854 85.9848 110 71.3108 110 54.9912C110 24.6598 85.3444 0 55.0087 0ZM55.0087 6.87929C81.6275 6.87929 103.116 28.3722 103.116 54.9867C103.116 66.584 99.034 77.21 92.2278 85.5117C90.4833 71.4218 80.9275 59.7607 68.0278 54.9911C72.8618 51.1454 75.9685 45.22 75.9685 38.5901C75.9685 27.0489 66.5497 17.6043 55.008 17.6043C43.4668 17.6043 34.0267 27.0488 34.0267 38.5901C34.0267 45.2244 37.1461 51.1543 41.9888 54.9999C29.0858 59.7737 19.5334 71.435 17.7932 85.5337C10.9698 77.2278 6.87917 66.5972 6.87917 54.9867C6.87917 28.3678 28.3898 6.87929 55.0087 6.87929ZM54.6477 24.4881C54.7681 24.4838 54.8884 24.4881 55.0087 24.4881C62.8333 24.4881 69.0942 30.7701 69.0942 38.5945C69.0942 46.4191 62.8336 52.68 55.0087 52.68C47.1841 52.68 40.9023 46.4195 40.9023 38.5945C40.9023 30.8902 46.991 24.6817 54.6435 24.4881H54.6477ZM55.0087 59.5506C72.0366 59.5506 85.637 73.1499 85.637 90.179V92.1383C77.3269 99.0004 66.6533 103.117 55.0087 103.117C43.3685 103.117 32.704 99.0047 24.3891 92.1469V90.1789C24.3891 73.1509 37.9796 59.5506 55.0087 59.5506Z" fill="#39414C"/>
</g>
<defs>
<clipPath id="clip0_10_82">
<rect width="110" height="110" fill="white"/>
</clipPath>
</defs>
</svg>
